<?xml version="1.0" encoding="UTF-8"?>
<svg id="Capa_2" data-name="Capa 2" xmlns="http://www.w3.org/2000/svg" viewBox="0 0 321.64 82.42">
  <defs>
    <style>
      .cls-1 {
        fill: #fff;
      }
    </style>
  </defs>
  <g id="Capa_1-2" data-name="Capa 1">
    <path class="cls-1" d="M140.27,66.9l5.26-13.28h-60.32c-5.45,17-20.38,26.03-37.79,26.91H13.18c-7.19-.26-12.42-5.52-13.18-12.69L.04,7.57c0-2.99,3-4.97,5.5-4.96,2.58,0,5.47,1.98,5.47,4.95l.09,59.74c0,1.59,1.51,2.2,2.74,2.2l30.78.02c6.49,0,12.6-1.18,18.2-4.42,4.62-2.67,8.28-6.5,10.54-11.47l-36.79-.09c-5.71-.01-10.92-4.54-10.95-10.4l-.13-31.57C26.54,5.28,31.01.87,37.31.13c6.78-.28,13.51-.14,20.27.95,11.84,1.91,21.89,7.49,26.8,18.73,2.41,5.53,3.4,11.49,3.22,17.54l-.16,5.27h62.47s13.59-34.04,13.59-34.04c1.53-3.85,5.45-5.99,9.34-5.99,3.87,0,7.81,2.15,9.34,5.99l13.94,34.98c.92,2.32.37,4.87-1.03,6.86-1.2,1.71-3.41,3.19-5.88,3.19l-31.79.03-6.62,16.8c-2.28,5.78-7.2,9.83-13.55,10.11h-36.35c-3.11-.01-5.37-2.69-5.37-5.49,0-3.07,2.4-5.52,5.61-5.52h34.95c2,0,3.46-.73,4.21-2.61ZM64,14.25c-8.01-3.33-16.93-3.28-25.57-3.2-.97.21-1.98.93-1.98,2.13v29.42s39.86.02,39.86.02c1.2-11.71-.89-23.62-12.31-28.36ZM183.87,42.58l-11.03-27.73-11.05,27.77,22.08-.03ZM100.9,5.59c-3.15,0-5.37,2.7-5.37,5.54,0,2.67,2.12,5.47,5.12,5.47l41.02.05c3.21,0,5.74-2.15,5.87-5.32.12-2.88-2.12-5.75-5.52-5.75h-41.12ZM266.69,58.26c1.72.27,2.35,1.57,2.29,3.1-.05,1.34-.57,2.49-2.06,2.82-2.09.45-4.46.53-6.53-.16-1.16-.39-1.56-1.55-1.62-2.51-.08-1.22.41-2.2,1.66-2.78-.97-.94-.86-2.35.01-3.32-.94-.75-1.22-1.74-1.23-2.88-.03-1.64.86-2.92,2.55-3.15l4.75.05,3.07.14c-.03.48-.07.97-.27.99l-1.34.13c.49,1.35.71,3.27-.58,4.4-1.45,1.26-3.97.94-5.67.78-.24.07-.52.73-.43.95.11.27.57.69.87.73l4.53.72ZM265.87,54.09c1.15-.61.94-2.64-.15-3.09-1.23-.5-2.78-.54-3.99.04-1.11.54-1.09,2.62.07,3.13,1.17.52,2.86.56,4.08-.08ZM266.41,62.52c.99-.34.99-2.48.04-2.64l-4.75-.79c-1.16.88-1.51,2.35-.53,3.48,1.65.35,3.49.56,5.24-.05ZM227.58,34.71c-.53,2.07-2.04,3.54-4.12,3.5l-6.73-.12v-15.04s6.58-.12,6.58-.12c2.16-.04,3.75,1.42,4.25,3.48.59,2.7.59,5.47.02,8.3ZM225.74,27.55c-.22-1.65-1.38-2.99-3.1-2.99h-3.96s.02,11.98.02,11.98l3.67.05c3.93.05,3.92-4.97,3.38-9.03ZM238.39,74.44c1.54-1.18,3.43-2.18,4.57-1.31.27.2.54.9.54,1.27v7.67s1.87.03,1.87.03l-.02-8.37c0-1.57-1.35-2.64-2.89-2.56s-2.95.8-4.17,1.89c-.35-1.16-1.19-1.81-2.39-1.87-1.74-.09-3.25.77-4.58,1.88l-.24-1.64-1.47.02v10.66s1.88-.02,1.88-.02v-7.66c1.46-1.13,3.3-2.14,4.49-1.36.27.18.56.84.56,1.19l.02,7.86,1.83-.06v-7.61ZM224.74,77.42h-6.2s-1.46,4.71-1.46,4.71l-2.01-.05,4.97-14.9,3.19-.04,4.99,14.96-2.03.03-1.45-4.71ZM224.17,75.7l-2.54-7.49-2.53,7.54,5.07-.05ZM257.41,73.88c.38,2.03.38,3.95-.07,5.83-1.18,3.49-5.54,2.98-9.27,1.9v-14.74s1.88-.04,1.88-.04l-.02,6.05c1.19-1,2.45-1.67,3.96-1.71,1.71-.04,3.06.99,3.52,2.7ZM255.5,79.07c.3-1.56.31-3.07.04-4.59-.19-1.07-1.07-1.6-2.15-1.61-1.34-.01-2.64.76-3.46,1.74l.03,5.84c2.51.5,5.15.62,5.54-1.38ZM304.19,16.36c-3.92.24-4.31-4.34-3.7-8.2.18-1.11.98-2.28,2.01-2.65,1.88-.66,3.78-.25,5.51.6l-.04-5.3,1.89.04v15.13c-.51.07-1.11.13-1.37.02s-.24-.91-.29-1.34c-1.21.87-2.4,1.6-4.02,1.7ZM305.13,14.7c1.1-.22,2.12-.91,2.87-1.58l-.02-5.73-3.42-.55c-2.37-.38-2.62,2.96-2.24,5.9.17,1.33,1.29,2.26,2.81,1.96ZM224.99,52.95v-1.58s-6.43,0-6.43,0v-3.65c0-.54.73-1.05,1.23-1.05l6.1.02.04-1.6-7.01-.02c-1.32,0-2.33,1.3-2.33,2.53v9.83c0,1.33,1.03,2.67,2.44,2.66l6.88-.08-.03-1.52h-6.03c-.69,0-1.32-.67-1.32-1.37l.03-4.19h6.42ZM275.44,56.84c-.08-1.88.84-3.29,2.78-3.32l4.53-.07c.38-.79.11-2.38-.87-2.51-1.91-.25-3.59-.03-5.68.17l-.13-1.43,6.26-.36c1.29-.07,2.4,1.17,2.4,2.51l.02,8.12c-.28.17-1.28.35-1.36.04l-.39-1.5c-1.55,1.38-3.6,2.15-5.61,1.59-1.5-.42-1.88-1.76-1.94-3.24ZM282.87,57.1l-.02-2.1h-4.24c-.94,0-1.27.86-1.2,1.73.04.48.12,1.16.3,1.46.6.98,3.53.45,5.16-1.09ZM251.54,34.91c-.03-1.8.72-3.33,2.63-3.35l4.85-.03c.05-.67,0-1.57-.29-2.08-.23-.42-1.2-.72-1.76-.68l-4.57.28-.29-1.36,6.25-.41c1.37-.09,2.53,1.23,2.53,2.64l.03,8.1c-.44.07-1.19.15-1.42-.05s-.23-.86-.29-1.49c-1.24.92-2.71,1.83-4.31,1.84-2.14.02-3.33-1.3-3.37-3.41ZM259.06,35.03l-.05-2.08-4.94.16c-.72.65-.82,2.79.02,3.25,1.73.83,3.68-.25,4.96-1.33ZM244.42,58.76l4.18-.17c.32-.01.46.94.27,1.29-3.68.83-8.1,1-8.79-2.65-.32-1.7-.32-3.49.05-5.17.61-2.79,3.65-3.13,6.58-2.65,1.77.29,2.58,1.63,2.61,3.36.02,1.37-.68,2.89-2.22,2.9l-5.2.04c-.09,1.72.84,3.11,2.53,3.04ZM246.94,54.02c.59-.21.61-1.87.25-2.31-1.14-1.36-3.88-1.1-4.71-.11-.57.68-.64,1.83-.61,2.6l5.08-.17ZM299.21,80.56c1.81.36,3.49.15,5.28-.04l.19,1.31c-3.27.9-7.75,1.06-8.72-1.86-.69-2.08-.73-4.33-.01-6.42.82-2.37,4.05-2.76,6.65-2.09,1.75.45,2.48,1.93,2.37,3.68-.07,1.13-.74,2.52-2.07,2.53l-5.35.06c-.1,1.07.37,2.57,1.68,2.83ZM302.48,75.99c.98-.33.69-2.35-.02-2.71-1.28-.65-2.95-.72-4.12.11-.82.58-.92,1.95-.82,2.83,1.66-.07,3.43.28,4.96-.23ZM267.99,80.53c1.81.4,3.46.2,5.41,0l.08,1.35c-3.01.84-7.47.87-8.44-1.52-.93-2.31-.94-4.85-.01-7.16.78-1.96,4-2.37,6.5-1.72,1.73.45,2.42,1.89,2.32,3.62-.06.97-.54,2.53-1.8,2.55l-5.58.1c-.06,1,.27,2.52,1.51,2.79ZM271.52,76.16c.62-.77.67-2.38-.14-2.85-1.24-.73-3.27-.78-4.33.27-.59.58-.63,1.77-.71,2.65l5.17-.07ZM233.62,36.51c1.82.42,3.53.16,5.37-.01l.21,1.35c-3.48.79-7.93,1.05-8.82-2.15-.57-2.06-.62-4.32.15-6.33,1.04-2.7,6.32-2.79,8.13-1.01.88.86.87,2.36.67,3.5-.21,1.16-1.05,1.84-2.21,1.84l-5.11.02c.02.99.35,2.5,1.61,2.79ZM236.87,32.04c.95-.21.83-2.33.16-2.73-1.25-.74-3-.78-4.18.08-.77.56-.91,1.9-.89,2.82,1.65-.01,3.29.19,4.91-.17ZM316.89,14.75l4.33-.2.09,1.31c-3.7.88-8.16.97-8.85-2.57-.72-3.67-.32-7.64,3.35-8.02,1.64-.17,3.45-.18,4.81.83,1.05.78,1.09,2.28.95,3.47-.15,1.33-1.03,2.11-2.37,2.12l-5,.03c-.02,1.79.98,3.1,2.68,3.02ZM319.13,10.04c1.04-.28.76-2.43-.05-2.82-1.28-.61-2.99-.71-4.12.24-.68.58-.8,1.85-.76,2.75,1.6-.05,3.35.26,4.92-.17ZM293.8,13.32c-.58,2.98-4.15,3.6-7.14,2.72-2.86-.84-3.16-5.47-2.14-8.45.39-1.14,1.35-1.95,2.52-2.18,3.19-.61,6.29-.07,6.8,3.01.27,1.63.27,3.28-.04,4.9ZM289.05,14.78c.92-.04,2.19-.18,2.54-1.11.68-1.78.94-4.41-.24-6.03-.91-1.26-3.3-1.04-4.41-.25-.42.3-.84,1.28-.84,1.73l.05,3.45c.02,1.52,1.28,2.27,2.89,2.21ZM312.63,35.64c-.64,2.64-3.38,2.9-6.17,2.61-1.89-.19-3.14-1.62-3.35-3.46-.39-3.34-.16-6.84,3.12-7.43,2.88-.52,5.93.03,6.47,2.8.35,1.81.37,3.69-.07,5.48ZM307.7,36.76c1.03,0,2.4-.08,2.82-1.14.69-1.76.8-4.24-.16-5.91-.63-1.1-2.29-.97-3.3-.82-2.32.33-2.38,3.26-1.94,5.98.21,1.31,1.19,1.88,2.59,1.9ZM288.86,35.69c-.65,2.6-3.8,3.01-6.58,2.48-1.39-.27-2.44-1.28-2.75-2.64-.74-3.2-.49-7.42,2.69-8.11,2.82-.61,5.99-.14,6.64,2.53.47,1.89.47,3.85,0,5.74ZM286.55,35.85c1.09-1.71,1.04-4.59,0-6.16-.86-1.32-3.36-1.1-4.42-.29-1.32,1-1.29,5.43-.18,6.61.93.99,3.7,1.25,4.6-.15ZM300.82,49.51h-2.05s-3.32,9.35-3.32,9.35l-3.36-9.34h-2.01s3.84,10.14,3.84,10.14l.98.56c-.44,1.44-1.45,2.68-3.2,3.06l.25,1.37c1.92-.25,3.58-1.32,4.32-3.26l4.55-11.87ZM235.65,52.08l.02,8.05,1.89-.05v-8.26c0-1.63-1.17-2.65-2.8-2.61-1.82.05-3.35.83-4.84,1.9l-.07-1.63-1.61.02v10.57s1.87.02,1.87.02v-7.59c1.12-.75,2.38-1.47,3.8-1.74,1.01-.19,1.74.56,1.75,1.3ZM228.74,7.11c.25.22.48.89.48,1.3v7.66s1.89-.04,1.89-.04l-.03-8.29c0-1.39-1.03-2.47-2.4-2.52-1.92-.08-3.59.62-5.2,1.91l-.18-1.69-1.55.02v10.62s1.88-.02,1.88-.02l-.02-7.58c1.7-1.1,4.07-2.28,5.12-1.35ZM283.08,73.11c.22.18.49.77.49,1.06v7.96s1.91-.08,1.91-.08l-.04-8.31c0-1.57-1.32-2.64-2.85-2.56-1.77.08-3.22.81-4.75,1.95l-.17-1.7-1.58.02v10.65s1.91-.04,1.91-.04l-.02-7.6c1.7-1.05,4.02-2.22,5.1-1.36ZM272.05,13.13c-2.28,2.03-5.29,1.93-5.3.7l-.04-8.39h-1.88s.05,8.84.05,8.84c0,1.33,1.58,2.16,2.78,2.12,1.77-.07,3.15-.83,4.65-1.74.02.4-.05,1.35.25,1.36l1.34.04V5.42s-1.87.12-1.87.12l.03,7.59ZM248.2,32.55l-4.81-1.27c-.7-.18-.65-2.12,0-2.27,2.85-.65,6.18.29,6.21-.27l.07-1.27-6.03-.24c-1.73-.07-2.64,1.27-2.61,2.88.03,1.45.61,2.55,2.07,2.9l4.15.98c.67.16,1.03.98.93,1.62-.09.58-.76,1.05-1.5,1.05h-5.3s-.06,1.41-.06,1.41c4.27.27,8.79,1.13,8.7-2.81-.03-1.32-.48-2.37-1.82-2.72ZM240.01,10.42l-4.45-1.16c-.77-.2-.59-2.32.21-2.32l5.87-.03.31-1.41-6.36-.22c-.56-.02-1.45.39-1.76.75-.34.39-.51,1.34-.55,1.9-.12,1.57.51,2.7,2,3.06l4.33,1.05c.59.14.88,1.08.76,1.61-.12.5-.81,1.05-1.45,1.05l-5.29.02-.11,1.3c4.05.4,8.67,1.13,8.72-2.68.02-1.53-.7-2.53-2.23-2.93ZM290.9,79.37v-6.37s3.37-.04,3.37-.04v-1.54s-3.35,0-3.35,0l-.02-3.08-1.89.06v3.05s-1.89.13-1.89.13l.04,1.37,1.82.07.04,6.87c0,1.21,1.03,2.46,2.24,2.38l2.85-.19-.15-1.29c-.07-.59-1.87.01-2.66-.47-.21-.13-.42-.71-.42-.97ZM279.45,6.98l3.39-.03v-1.52s-3.35,0-3.35,0l-.03-3.03h-1.87s-.03,3.01-.03,3.01l-1.84.15-.04,1.33,1.88.11.08,7.08c.01,1.21,1.36,2.29,2.44,2.19l2.66-.24-.21-1.31c-.06-.37-3.02.29-3.03-1.12l-.03-6.63ZM259.8,6.96h3.38s-.09-1.52-.09-1.52h-3.28s0-3.06,0-3.06h-1.87s0,3.06,0,3.06l-1.82.13-.16,1.37,1.97.07.06,7.18c0,1.03.99,1.94,1.94,2.04,1.09.12,2.09,0,3.1-.23l-.14-1.22c-.05-.4-3.02.17-3.03-.98l-.03-6.83ZM247.99,14.54c-.37,0-.91-.73-.91-1.15v-6.41s3.38-.03,3.38-.03v-1.52s-3.35,0-3.35,0l-.05-3.08-1.84.03-.04,3.05-1.85.17v1.34s1.86.06,1.86.06l.03,6.81c0,1.18.88,2.26,2.05,2.42,1.05.13,2.1-.02,3.11-.23l-.21-1.41-2.18-.05ZM293.52,35.28v-12.39s-1.93.03-1.93.03v13.05c.01,1.67,1.61,2.61,3.15,2.32l1.25-.24c.27-.05.1-.9.01-1.16s-.63-.41-1.12-.39c-.96.03-1.36-.51-1.36-1.23ZM299.4,22.9h-1.89s.03,13.05.03,13.05c0,1.71,1.74,2.61,3.24,2.35.45-.08,1.06-.11,1.19-.37s.06-1.03-.12-1.26c-.23-.29-2.45.23-2.45-1.18v-12.59ZM216.73,16.06h1.95V1.06h-1.95v15ZM253.43,52.32c1.5-.82,2.91-1.3,4.61-1.43l.09-1.64c-1.92-.14-3.36.73-4.88,1.78l-.31-1.41c-.06-.29-1.07-.14-1.38-.05v10.53s1.88-.01,1.88-.01v-7.76ZM273.73,30.37c1.46-.84,2.91-1.44,4.62-1.45l.1-1.74c-1.98-.05-3.42.81-4.89,1.91l-.29-1.48c-.06-.31-1.16-.16-1.41,0v10.45s1.88,0,1.88,0v-7.68ZM265.51,30.33c1.48-.78,2.9-1.35,4.6-1.46l.18-1.69c-2.01-.03-3.43.8-4.94,1.87l-.31-1.4c-.06-.29-1.08-.21-1.36-.05v10.45s1.85,0,1.85,0l-.02-7.73ZM271.27,49.49v10.68h1.89v-10.68h-1.89ZM252.31,16.11h1.83s0-10.67,0-10.67h-1.83s0,10.67,0,10.67ZM260.16,71.43v10.7s1.83,0,1.83,0v-10.7s-1.83,0-1.83,0ZM275.65,45.53l-1.1-1.43-3.66,3.13c-.08.19.57.92.8.8l3.97-2.5ZM261.98,67.01l-1.94.03-.02,2.24,2.08.04-.12-2.3ZM254.18.98l-1.93.02-.02,2.32h2.05s-.1-2.35-.1-2.35Z"/>
  </g>
</svg>