<?xml version="1.0" encoding="UTF-8"?>
<svg id="Capa_2" data-name="Capa 2" xmlns="http://www.w3.org/2000/svg" viewBox="0 0 168.85 77.64">
  <defs>
    <style>
      .cls-1 {
        fill: #fff;
      }
    </style>
  </defs>
  <g id="Capa_1-2" data-name="Capa 1">
    <path class="cls-1" d="M137.91,21.44l.09,2.39c.02.54,3.08,5.02,6.02,5.96l2.11-2.54c1.48.24,4.59.56,6.13,1.39,5.27,2.86,5.77,7.81,10.72,7.1-1.62,8.32-6.93,10.44-10.3,16.28-1.09,1.89-2.43,3.4-4.6,4.88-.91-4.45-1.33-8.34-2.87-12.56-.88-2.4-5.17-3.91-4.6-7.59.23-1.43,1.85-3.5,3.23-5.35-2.64-.18-4.28-.65-4.99-2.96l-4.31-2.21c-3.73-.07-5.92-2.22-6.06-7.03l-1.84,2.64-1.85-9.52c2.28-1.46,3.31-4.24,1.59-6.3l-2.91,1.43-1.22.6c-.35.17-.78-.7-1.36-1.66,13.31-8.76,29.69-7.61,41.14,3.93,3.38,3.41,4.33,8.13,5.24,12.71,1.2,6.07,2.65,12.37.38,18.41-1.8,4.79-5.05,9.6-8.91,13.14-6.47,5.94-16.53,8.5-24.95,5.83,7.59-2.16,15.45-1.12,21.53-5.9,5.01-3.94,9.2-10.16,11.47-16.2,5.25-13.96-8.94-35.87-27.17-35.18l-1.15,3.85c-.23.76,1.47,1.66,2.74,2.73l.94-3.69,6.47,2.5-1.62,1.97c-.31.38,1.03,1.4,1.16,1.61l-3.14,1.01c-.7.22-.65,1.9-.72,2.69-1.33.7-3,1.79-2.98,2.83.04,1.62,1.79,3.18,3.05,3.23,0,1.12.03,2.87,0,1.59l-4.97-1.57,1.78-1.73c.28-.27-1.28-1.34-1.66-1.35l-5.46-.15-.82,4.67c2.22,1.02,3.58-.42,4.66-1.87ZM49.48,66.18c3.43-6.14,3.87-12.52,5.51-19.2l1.71,4.78,4.64-.4-1.74,23.1,3.28-1.05c.71-.23.7-2.5.81-3.28l2.8-19.28c1.79-.73,3.63-.94,5.98-1.07l-1.02-3.8h-4.22c.1-2.18.11-4.18-.73-4.87-.74-.62-3.34-.77-3.96-.35l-1.05,4.93-6.67,1.51-.26-5.4c-.12-1.33-4.47-2.19-4.75-.64-.4,2.26-.72,4.38-.79,6.27-.3,7.38-1.87,19.29-5.9,19.24-.83-.01-2.38-1.61-2.54-2.43-2.04-10.33,4-16.1-.85-17.35-2-.51-2.89.01-3.82,2.14l-1.99-3.28-8.51.46c-1.28.07-2.77-.05-3.42.57-.56.53-.56,2.74-.26,3.55l-1.89,26.98,3.7-1.43,1.91-13.28,6.56-.11.64-5.4-6.4.73,1.13-6.75,8.89-2.31c-1.55,8.85-1.2,20.07,6.05,21.8,2.65.64,5.83-2.03,7.17-4.42ZM11.51,39.77c.88-.12,2.68-.55,3.49-.94.7-.34.65-2.55.76-3.35l3.67-27.6c.2-1.49-.49-3.41-1.48-3.74-.93-.31-3.64-.03-3.74,1l-1.62,17.08L7.03,7.06l-5.45.18-1.57,25.69,3.55-.41,2.3-13.36c3.49,6.7,7.41,13.44,5.66,20.61ZM140.92,66.46l-23.86,4.19c1.56-1.75,3.05-2.32,4.67-3.09,3.21-3.15,5.02-6.92,5.1-11.74.07-3.93-3.44-10.71-7.98-9.63-7.16,1.71-10.68,11-9.42,17.44.82,4.18,3.95,5.09,8.14,6.61l-9.33,1.93,1.72,5.47,10.48-3.22,9.57-3.2c4-1.34,8.08-1.29,10.91-4.76ZM121.18,50.66c3.14,6.14-.56,13.35-7.37,14.14-1.95-6.22,2.3-11.84,7.37-14.14ZM87.5,10.83l-.8-2.83c-.21-.75-2.89-.33-4.04-.33l-.73-5.03-3.99-1.27-1.32,5.87-5.49.99-.98-.89-.77-3.85c-7.24.76-14.26,6.83-13.41,14.02.64,5.46,10.77,7.34,6.4,13.03-2.18,2.84-4.86,4.83-8.3,7.65l3.83,1.62c3.51-2.36,6.98-5.21,8.81-9.02,2.09-4.35,0-9.11-3.94-11.42-.76-.44-1.83-1.92-1.88-2.7-.23-3.41,5.28-6.53,9.16-9.06l.86.99.4,4.55,5.02-.47-.84,11.9-1.15,11.83,3.95-1.84,3.28-22.64,5.83-.89,1.06,1.43-2.18,25.93,3.86-1.84,1.05-6.79,11.33,2.24-.06-3.72-8.07-2.78c6.31-3.58,9.88-8.16,7.16-13.93-1.04-2.22-3.41-3.54-6.73-4.57l-.34-5.38c-.09-1.39-4.1-2.37-4.57-.97l-1.5,11.14-.9-.99ZM92.52,21.64l.74-8.56c.66-.12,2.55.03,3.34.29s1.38,2.75.97,3.61c-1.13,2.39-2.59,3.59-5.05,4.67ZM99.82,64.12c6.52-4.09,9.76-8.44,6.93-14.05-1.14-2.26-3.97-3.64-6.96-4.63.11-1.78.36-4.88-.64-5.91-.61-.62-2.36-1.45-2.93-1.1s-1.27,1.65-1.6,2.43l-3,35.83c1.28-.45,2.99-1.23,3.94-1.87l.93-6.47,11.23,2.26-.03-3.65-7.87-2.83ZM97.72,60.01l.84-7.86c.07-.66,2.36-1.05,2.91-.68.69.47,1.69,2.36,1.48,3.24-.74,3.1-2.31,4.46-5.23,5.29ZM52.27,19.1l-6.7,1.01,1.16-6.72,8.67-2.39-1.39-3.43-6.58.75-.3-4.94c-.07-1.14-3.49-1.72-4.36-.89-.58,2.61-1.14,5.87-1.33,8.43l-2.3,31.07,3.69-1.89,1.11-6.38,10.04-2.11-1.54-3.63c-2.42.35-5.27.62-7.67.32-.9-.51.25-3.74,1.23-3.75l6.27-.04v-5.39ZM39.92,2.38l-4.93-.24-.52,7.12c-.51,7.05-1.82,18.53-5.92,18.84-.89.07-2.52-1.67-2.67-2.59-1.82-11.59,5.66-18.63-3.94-16.89-1.98,9.11-1.96,21.73,5.73,23.33,8.48,1.76,13.29-19.11,12.25-29.56ZM79.92,70.58c8.86.49,11.5-17,12.3-27.22.14-1.79-1.78-3.09-3.33-3.06-4.24.06-.45,11.52-5.64,24.11-.34.83-1.85,2.04-2.65,2.24s-2.54-1.44-2.66-2.28c-1.31-9.56,2.71-16.75-.04-17.13l-3.74-.52c-2.85,9.79-1.36,23.47,5.77,23.86ZM113.46,7c-5.57,2.81-8.57,7.65-9.56,13.47-.89,5.26,1.76,9.61,7.34,10.77,6.23-1.54,9.6-6.09,10.3-12.84.59-5.64-3.11-10.4-8.09-11.4ZM115.77,12.04c1.74,2.86,1.66,6.02.23,9-1.11,2.33-3.26,4.45-7.29,5.25-2.06-5.94,1.68-11.57,7.06-14.25ZM141.97,71.12l7.02-7.34-4.03-.25c-3.15-.19-5.29-.42-8.6.72l7.33,1.65-7.26,7.7c2.17-.52,4.64-1.54,5.54-2.48Z"/>
  </g>
</svg>