<?xml version="1.0" encoding="UTF-8"?>
<svg id="Capa_2" data-name="Capa 2" xmlns="http://www.w3.org/2000/svg" viewBox="0 0 124.66 81.07">
  <defs>
    <style>
      .cls-1 {
        fill: #fff;
      }
    </style>
  </defs>
  <g id="Capa_1-2" data-name="Capa 1">
    <path class="cls-1" d="M108.32,68.54v-17.05s-.16-1.33-.16-1.33c-.37-3.24-2.1-5.89-5.53-6.07-2-.11-3.83.8-5.02,2.41-1.02,1.37-1.59,2.93-1.55,4.67v17.37s-5.14,0-5.14,0v-17.99c-.3-2.57-1.21-5.09-3.67-6.09-2.15-.87-4.5-.34-6.18,1.27-1.45,1.39-2.24,3.25-2.48,5.29v17.52s-5.11,0-5.11,0v-22.76s-.21-5.95-.21-5.95h4.56s.09,1.93.09,1.93l.08,1.39c.03.58,0,1.11.16,1.73.53-.8,1-1.54,1.65-2.22,1.23-1.29,2.75-2.22,4.5-2.6,4.6-1.02,9.06.68,10.64,5.24.61-.99,1.16-1.9,1.96-2.69,1-.99,2.21-1.77,3.56-2.23,1.97-.67,4.09-.75,6.1-.21,1.53.41,2.86,1.27,3.94,2.42,2.09,2.22,2.87,5.61,2.96,8.67v17.29s-5.15,0-5.15,0ZM23.56,68.52l6.36.02c1.46-2.55,2.72-5.12,3.89-7.79,1.24-2.71,2.21-5.44,3.2-8.23l-1.01,7.74-1.13,8.28h7.65s0-37.48,0-37.48h-2.64s-.56,4.12-.56,4.12c-.61-3.86-1.68-7.42-3.37-10.88-.84-1.72-1.75-3.32-2.98-4.78l-1.18-1.2-.96,1.72,1.5,2.58c1.81,3.11,3.82,7.98,4.12,11.54.05.6.09,1.14,0,1.74-4.48-.8-8.5-3.61-11.72-6.72l-1.6.29,1.32,1.68c.96,1.22,2.02,2.3,3.12,3.4,1.27,1.15,2.54,2.19,4.08,2.95l4.28,2.1c-.22,4.58-1.75,9.49-3.67,13.67l-2.59,5.01c-1.92,3.48-3.92,6.77-6.13,10.26ZM51.47,53.09c.41-5.08,3.71-8.7,8.85-9.18h2.57c1.63.17,3.14.49,4.67,1.3l1.23-3.93c-1.56-.73-3.18-1.15-4.88-1.34-6.25-.76-12.66,1.3-15.9,6.9-1.43,2.47-1.99,5.22-1.92,8.05.16,7.23,4.57,12.36,11.73,13.45,3.68.45,7.38,0,10.86-1.44l-.93-3.85c-1.88.76-3.68,1.27-5.63,1.3-5.86.35-10.24-3.34-10.64-9.21v-2.06ZM23,17.15l-1.9-.38c-.88,0-1.73-.04-2.62.03-1.67.13-3.24.53-4.82,1.02,1.99,4.46,6.25,7.03,11.11,6.48,1.57-.18,3.04-.56,4.5-1.14-1-3.04-3.32-5.17-6.27-6ZM23.59,31.84c-3.72-.65-7.69.19-10.06,3.23-1.35,1.74-2.06,3.76-2.35,5.96.66.09,1.31.07,2,.01,3.5-.26,6.51-1.35,8.66-4.18,1.03-1.53,1.53-3.14,1.75-5.03ZM33.4,4.23c-.82-1.74-2.09-3.16-3.69-4.23-2.64,3.16-3.75,6.8-1.49,10.39.84,1.36,1.97,2.47,3.34,3.37,2.27-2.87,3.36-6.16,1.84-9.53ZM37.42,17.74c2.7-1.61,3.65-4.61,3.63-7.66l-.12-1.88-1.62.49c-1.67.5-3.12,1.55-4.05,3.05-1.22,1.94-1.2,4.74-.42,6.94.98-.21,1.79-.5,2.58-.93ZM41.19,22.25c-1.8,0-3.27,1.46-3.27,3.27s1.46,3.27,3.27,3.27,3.27-1.46,3.27-3.27-1.46-3.27-3.27-3.27ZM102.52,80.94v-7.57s-1.71,0-1.71,0l-.89,2.94-.9-2.95-1.78.02v7.56s1.29,0,1.29,0v-5.16s.9,2.95.9,2.95h.96s.82-2.81.82-2.81l.03,5.02h1.29ZM58.06,80.94h1.28s0-7.58,0-7.58h-1.7s-.9,2.95-.9,2.95l-.89-2.94h-1.76s0,7.58,0,7.58h1.28s.03-5.01.03-5.01l.82,2.79h.96s.87-2.94.87-2.94v.52s0,4.63,0,4.63ZM23.57,11.54c-.33,4,2.78,6.01,6.56,6.34.03-1.32-.25-2.6-.98-3.72-1.31-1.89-3.38-2.63-5.58-2.62ZM6.9,73.36h-1.29s-.03,4.06-.03,4.06l-1.6-4.06-1.44.02v7.57s1.27,0,1.27,0v-4.59s1.79,4.58,1.79,4.58h1.3s0-7.58,0-7.58ZM89.44,74.81c0-.77-.83-1.41-1.58-1.42l-2.58-.02v7.58s2.64-.05,2.64-.05c.99-.1,1.56-.91,1.55-1.87l-.04-4.22ZM87.32,79.72h-.57s0-5.13,0-5.13h.71c.37.02.55.39.55.72v3.64c0,.44-.26.78-.69.77ZM124.66,79.15v-4.09c0-.68-.37-1.29-.98-1.57-.78-.36-1.72-.36-2.48.1-.41.25-.81.8-.82,1.3l-.02,4.25c0,1.04.71,1.81,1.76,1.9h.79c1.02-.1,1.76-.9,1.76-1.9ZM122.62,79.8c-.46.06-.81-.28-.81-.73l.02-4.06c0-.29.45-.54.6-.5.43-.07.67.16.8.52v3.96c0,.46-.24.77-.6.81ZM80.89,80.95h1.46s-1.51-7.61-1.51-7.61l-1.91.02-1.55,7.58h1.34s.34-1.81.34-1.81h1.48s.34,1.82.34,1.82ZM79.29,77.98l.51-2.73.53,2.72h-1.03ZM21.24,80.96l1.45-.04-1.48-7.57h-1.93s-1.54,7.59-1.54,7.59h1.36s.31-1.81.31-1.81h1.49s.34,1.82.34,1.82ZM19.64,77.97l.52-2.87.5,2.85-1.02.02ZM37.85,80.95h1.45s-1.49-7.6-1.49-7.6h-1.91s-1.01,4.89-1.01,4.89l-.55,2.71h1.35s.33-1.81.33-1.81h1.47s.36,1.81.36,1.81ZM36.25,77.97l.53-2.74.5,2.74h-1.03ZM63.67,80.95h1.44s-1.49-7.6-1.49-7.6h-1.91s-.69,3.34-.69,3.34l-.86,4.26h1.35s.32-1.81.32-1.81h1.48s.36,1.81.36,1.81ZM62.07,77.99l.52-2.77.5,2.74-1.02.03ZM110.77,77.02l1.41-3.66h-1.37s-.76,2.13-.76,2.13l-.77-2.14-1.51.03,1.42,3.74-1.5,3.81h1.39s.83-2.25.83-2.25l.84,2.26,1.48-.03-1.47-3.9ZM117.35,79.8c-.33-.06-.55-.34-.55-.73v-4.06c.02-.37.44-.52.69-.52s.63.13.65.44l.05,1.01h1.3s-.03-1.18-.03-1.18c-.01-.57-.41-1.05-.93-1.29-.8-.38-1.81-.3-2.53.24-.48.35-.67.94-.67,1.52l.04,4.29c0,.93.97,1.54,1.79,1.54h.61c.87,0,1.65-.69,1.68-1.59l.04-1.08h-1.32s-.05.94-.05.94c-.02.41-.52.52-.8.47ZM12.42,79.8c-.28-.05-.56-.3-.56-.65l.02-4.16c0-.35.45-.51.69-.51.22,0,.63.18.64.45l.05,1.01,1.29-.02-.05-1.27c-.02-.53-.42-.96-.89-1.18-.86-.41-1.94-.32-2.67.34-.28.26-.54.76-.54,1.16v4.4c.02.94.83,1.58,1.7,1.66.67.07,1.29.01,1.82-.43.27-.23.59-.71.6-1.07l.03-1.14-1.29-.02-.06.93c-.02.39-.5.52-.79.47ZM74.15,74.97c0-.32.43-.49.64-.49s.65.11.66.35l.05,1.09h1.34s-.05-1.19-.05-1.19c-.02-.56-.38-1.01-.88-1.25-.86-.41-1.93-.33-2.67.31-.25.22-.52.68-.52,1.02v4.73c.02.86.86,1.37,1.62,1.49.92.15,1.87-.12,2.31-.98.25-.49.17-1.08.16-1.66h-1.29s-.04.92-.04.92c-.01.32-.43.5-.69.48-.29-.01-.65-.2-.65-.61v-4.22ZM44.1,79.8c-.24-.03-.59-.27-.58-.6v-4.17c0-.39.46-.56.74-.55s.62.22.63.57l.02.88h1.31s-.01-.87-.01-.87c-.01-.78-.39-1.42-1.14-1.68-.5-.17-1.06-.19-1.59-.05-.74.2-1.39.82-1.39,1.64v4.25c-.02.8.48,1.48,1.25,1.71,1.3.38,2.66-.12,2.83-1.31l.03-1.24h-1.28s-.05.95-.05.95c-.02.39-.47.5-.75.46ZM106.74,76.42h-1.7s0-1.84,0-1.84h2.13s-.02-1.21-.02-1.21h-3.59s0,7.59,0,7.59h3.59s0-1.23,0-1.23h-2.13s0-2.04,0-2.04h1.7s0-1.26,0-1.26ZM93.61,76.42h-1.71s0-1.84,0-1.84h2.13s-.01-1.21-.01-1.21h-3.56s0,7.59,0,7.59h3.57s0-1.23,0-1.23h-2.12s0-2.04,0-2.04l1.72-.02v-1.24ZM32.29,77.76l-.08.43-.86-4.83-1.43.03,1.51,7.62h1.47s1.48-7.63,1.48-7.63h-1.32s-.77,4.38-.77,4.38ZM26.41,37.17c-.08-.87-.28-1.68-.61-2.51-2.17.84-3.41,2.9-2.99,5.13.11.59.28,1.15.51,1.75,2.05-.56,3.26-2.33,3.08-4.37ZM15.7,26.23c1.38,2.82,3.91,3.8,6.85,2.65-.83-3.08-4.04-3.44-6.85-2.65ZM25.59,74.58h1.48s-.03-1.22-.03-1.22h-4.31s0,1.21,0,1.21h1.41s0,6.37,0,6.37h1.45s0-6.37,0-6.37ZM68.05,74.58h1.42s-.02-1.21-.02-1.21h-4.26s-.03,1.21-.03,1.21h1.43s0,6.37,0,6.37h1.47s0-6.37,0-6.37ZM48.57,79.72v-6.36s-1.44.02-1.44.02v7.57s3.6,0,3.6,0l-.02-1.23h-2.13ZM27.79,73.35v7.61s1.49,0,1.49,0v-7.61s-1.49,0-1.49,0ZM15.45,80.97h1.48s0-7.63,0-7.63h-1.48s0,7.63,0,7.63ZM7.94,80.96h1.47s0-7.62,0-7.62h-1.47s0,7.62,0,7.62ZM51.55,73.35v7.62s1.49,0,1.49,0v-7.62s-1.49,0-1.49,0ZM112.88,80.95h1.48s.02-7.6.02-7.6h-1.48s-.02,7.6-.02,7.6ZM70.23,80.96h1.46v-7.61h-1.46v7.61ZM0,80.96h1.45s0-7.61,0-7.61H0s0,7.61,0,7.61ZM64.24,70.94h-1.39s-.74,1.66-.74,1.66h1.01s1.11-1.66,1.11-1.66ZM106.92,70.94h-1.37s-.74,1.65-.74,1.65h1.03s1.09-1.65,1.09-1.65Z"/>
  </g>
</svg>