<?xml version="1.0" encoding="UTF-8"?>
<svg id="Capa_2" data-name="Capa 2" xmlns="http://www.w3.org/2000/svg" viewBox="0 0 868.18 83.3">
  <defs>
    <style>
      .cls-1 {
        fill: #fff;
      }
    </style>
  </defs>
  <g id="Capa_1-2" data-name="Capa 1">
    <g>
      <path class="cls-1" d="M23.22,49.54v-18.36c-.12-4.23-2.68-7.62-6.98-7.75-4.86-.15-7.69,4.04-7.69,8.72v17.17s-8.36,0-8.36,0V2.84s8.36,0,8.36,0v20.77c1.8-4.79,6.7-7.65,11.81-7.17,7.37.65,11.14,6.26,11.18,13.43v19.65s-8.33,0-8.33,0ZM116.87,30.64c2.61-1.88,4.78-4.18,6.53-6.88,1.47-2.18,2.51-4.51,3.18-7.12h-8.91c-1.35,6.48-6.35,11.82-13.01,13.15V2.69s-8.37,0-8.37,0v46.47s8.37,0,8.37,0v-12.79c2.16.21,4.01.98,5.79,2.04,2.07,1.34,3.83,3.01,5.24,5.03,1.23,1.75,2.06,3.63,2.51,5.72h8.91c-.29-1.7-.77-3.15-1.45-4.66-2.49-5.06-7.32-9.98-12.85-11.66,1.44-.56,2.75-1.3,4.05-2.2ZM135.57,37.32c2.19.07,4.29.11,6.49-.09,4.38-.4,9.31-1.52,12.41-4.7,3.11-3.19,2.7-8.43-.35-11.72-1.64-1.77-3.74-2.94-6.05-3.67-5.01-1.59-10.41-1.08-14.98,1.48-4.82,2.7-7.88,7.56-8.22,13.09-.16,2.53.05,4.98.94,7.37,2.03,5.49,6.99,9.1,12.7,10.13,3.8.69,7.63.42,11.29-.78,3.4-1.15,6.31-3.22,8.46-6.08l-5.75-4.27c-1.99,2.49-4.69,4.16-7.77,4.74-4.43.82-10.01-.99-11.24-5.56l2.07.07ZM142.98,31c-3.28.54-6.56.52-9.97.27.42-4.93,4.53-8.63,9.5-8.51,1.83.04,3.63.54,4.93,1.83.73.72,1.12,1.6,1.02,2.61-.09.9-.58,1.77-1.48,2.35-1.22.82-2.55,1.22-4,1.46ZM39.59,49.8c2.73.85,5.69.63,8.27-.55,2.06-.95,3.52-2.51,4.78-4.4l.6,4.56h7.08s0-21.68,0-21.68c0-1.72-.29-3.28-.78-4.87-1.13-3.72-4.24-5.65-8.02-6.17-5.84-.81-11.33.22-16.43,3.28l2.64,6.17c.64-.52,1.26-.97,2-1.38,2.69-1.25,5.62-1.83,8.57-1.39.92.14,1.85.43,2.5,1.09.96.97,1.47,2.32,1.48,3.69l.03,2.12c-4.44.03-8.7.39-12.68,2.32-2.95,1.43-5.39,4.06-5.67,7.4-.34,4.11,1.57,8.56,5.63,9.83ZM42.39,41.81c-.48-1.61-.43-3.45.84-4.56.89-.67,1.84-1.12,2.92-1.42,2.03-.5,4.04-.69,6.16-.55v4.64c-1.04,1.86-2.61,3.26-4.6,3.99-2.12.5-4.68.06-5.32-2.09ZM71.33,29.62c.78-3.82,3.39-6.44,7.38-6.39,2.3-.05,4.33.97,5.66,2.83.55.82.95,1.66,1.32,2.68l8.07-2.52c-1.51-4.61-4.47-7.85-9.21-9.24-3.38-.87-6.88-1.03-10.28-.24-5.48,1.27-9.71,5.31-11.14,10.76-.89,3.38-.91,6.93-.08,10.34.65,2.71,1.93,5.09,3.86,7.08,4.21,4.35,10.43,5.38,16.25,4.21,5.42-1.19,9.51-5.53,10.98-10.83l-8.15-1.88c-.4,1.68-1.16,3.12-2.34,4.31-.83.86-1.85,1.38-3.02,1.66-3,.59-5.91-.07-7.72-2.61-1.98-2.77-2.24-6.87-1.57-10.16ZM207.87,39.17c-.09-1.14-.29-2.24-.85-3.25-.79-1.42-1.94-2.55-3.36-3.34-1.4-.78-2.83-1.38-4.39-1.79l-5.23-1.38c-1.1-.29-2.13-.69-3.13-1.18-.93-.46-1.5-1.29-1.55-2.22-.12-2.15,1.84-3.19,4.02-3.3,1.18-.06,2.32.04,3.4.51,1.47.75,2.43,2.09,2.79,3.7l7.62-2c-1.18-4.69-4.92-7.63-9.55-8.4-2.78-.46-5.58-.39-8.3.3-4.78,1.22-8.55,4.89-8.07,10.01.12,1.31.37,2.56,1.12,3.66.91,1.33,2.19,2.35,3.65,3.05,1.46.7,2.94,1.25,4.52,1.65l5.45,1.38c1.04.26,2.02.71,2.89,1.34,1.05.76,1.21,2.23.55,3.31-.52.84-1.35,1.33-2.28,1.63-3.65.87-7.15-.23-8.27-3.95l-7.84,1.76c2.52,7.55,10.4,9.96,17.73,8.56,5.06-.97,9.55-4.61,9.1-10.04ZM179.05,16.45c-3.02-.03-5.76,1.1-7.72,3.27-1.21,1.27-1.88,2.75-2.54,4.37l-.02-7.67h-8.37s0,32.94,0,32.94h8.38s0-15.81,0-15.81c.09-1.64.36-3.14,1.1-4.56,1.79-3.41,5.35-4.62,9.17-3.9v-8.65ZM29.29,68.51v13.19s3.97,0,3.97,0v-15.46c.07-2.42-1.94-3.98-4.25-4.21-2.33-.23-5.02.29-5.87,2.62l-.68-2.38-2.92.02v16.02s3.96,0,3.96,0v-7.96c.08-2.43.5-4.86,3.21-4.88,1.84-.02,2.51,1.29,2.6,3.05ZM199.55,62.12c-4.55,0-8.24,3.69-8.24,8.24s3.69,8.24,8.24,8.24,8.24-3.69,8.24-8.24-3.69-8.24-8.24-8.24ZM195.87,72.49c-.49-1.39-.5-2.98.05-4.37.63-1.58,2.15-2.47,3.77-2.4,1.6.07,3.02,1.05,3.58,2.64.43,1.21.44,2.56.06,3.79-.55,1.78-2.14,2.89-4.04,2.82-1.63-.06-2.89-.99-3.42-2.49ZM110.5,62.12c-4.55,0-8.24,3.69-8.24,8.24s3.69,8.24,8.24,8.24,8.24-3.69,8.24-8.24-3.69-8.24-8.24-8.24ZM106.83,72.52c-.87-2.4-.3-5.62,2.18-6.54,1.26-.47,2.44-.32,3.54.31,2.03,1.16,2.45,4.14,1.6,6.23-.64,1.59-2.11,2.5-3.87,2.46-1.65-.04-2.91-.96-3.45-2.45ZM54.97,72.34h3.89c2.41-.18,5.73-1.03,6.72-3.23.91-2.02.1-4.31-1.77-5.55-3.22-2.13-7.64-1.76-10.49.85-1.72,1.58-2.47,3.73-2.47,6.03,0,3.28,1.88,6.07,4.97,7.22,2.45.91,5.17.8,7.59-.21,1.34-.62,2.44-1.48,3.32-2.67l-2.73-2.06c-1.72,2.2-4.7,3.08-7.24,1.77-.91-.47-1.51-1.17-1.8-2.15ZM54.74,69.43c.27-2.88,2.95-4.68,5.65-3.92.45.13.89.4,1.22.72.66.64.67,1.71-.13,2.3-1.6,1.18-4.66,1.05-6.73.9ZM177.39,62.21v8.99c-.18,1.31-.63,2.54-1.75,3.27-1.22.79-2.91.7-4.07-.16-.91-.67-1.24-1.68-1.39-2.79v-9.31s-4.09,0-4.09,0v10.07c.26,3.55,2.05,5.87,5.63,6.22,2.55.25,4.68-1.09,5.62-3.48l.08,1.46c.05.97.83,1.8,1.83,1.81l2.29.02v-16.1s-4.15,0-4.15,0ZM45.64,62.21v8.78c-.11,1.22-.45,2.4-1.4,3.22-1.33,1.15-3.47,1.05-4.73-.16-.74-.7-.97-1.64-1.08-2.63v-9.21s-4.09,0-4.09,0v10.27c.35,3.51,2.16,5.72,5.7,6.02,2.51.22,4.6-1.1,5.54-3.48l.09,1.43c.04.97.8,1.82,1.81,1.83l2.31.03v-16.1s-4.15,0-4.15,0ZM153.22,62.21h-4.15s0,8.91,0,8.91c-.15,1.27-.53,2.47-1.58,3.24-1.32.98-3.29.85-4.49-.27-.79-.73-1.05-1.72-1.14-2.78v-9.1s-4.09,0-4.09,0v9.75c.08,3.45,1.88,6.15,5.39,6.51,2.8.29,4.63-.86,5.89-3.41l.07,1.55c.04.91.88,1.66,1.78,1.67l2.32.02v-16.09ZM129.64,80.87c1.69-.88,2.72-2.52,2.73-4.46v-11.1s4.45,0,4.45,0v-3.34s-4.07,0-4.07,0c-.08-.91.42-1.69,1.28-2.08l1.66-.23v-3.82c-2.48-.07-4.92.37-6.47,2.3-.79,1.11-1.13,2.37-1.1,3.81h-3.02s0,3.35,0,3.35h3.01s0,10.76,0,10.76c0,1.38-1.46,1.9-2.9,1.86v3.84c1.64.03,3.09-.2,4.43-.9ZM80.81,72.02c-1.49-3.84-8.74-2.7-8.74-5.31,0-1.12,1.22-1.62,2.5-1.54,1.25.03,2.19.86,2.48,2.09l3.71-.98c-.46-2-2.02-3.52-4.04-4.03-2.71-.68-6.24-.23-7.87,2.13-.92,1.32-1.03,3.16-.23,4.57.97,1.7,3.53,2.31,5.45,2.78,1.3.32,3,.68,3.09,1.82.09,1.18-1.19,1.81-2.56,1.75-1.3-.04-2.38-.74-2.76-2.09l-3.84.87c.63,2.01,2.2,3.44,4.2,4.07,2.68.71,5.99.42,7.86-1.7,1.07-1.21,1.33-2.91.74-4.43ZM9.2,70.32l4.88-8.11h-4.05s-2.71,5-2.71,5l-3.04-5.02-4.28.02,4.92,8.13L.08,78.51h4.05s2.7-5.01,2.7-5.01l3.04,5.02,4.28-.02-4.95-8.18ZM161.97,74.86c-.29-.13-.92-.53-.92-1.11v-8.31s3.59,0,3.59,0v-3.37s-5.18,0-5.18,0c.82-.34,1.56-1.04,1.56-2.01v-1.07s-4.11,0-4.11,0l-.02,1.83c0,.74-.63,1.26-1.31,1.26h-1.3s0,3.37,0,3.37h2.53s.02,8.24.02,8.24c0,1.12.34,2.21.99,3.09,1.58,2.15,5.39,2.31,7.41.53l-1.48-2.83c-.68.45-1.1.55-1.78.39ZM91.01,74.47c-.36.21-.74.41-1.13.45-.86.08-1.59-.54-1.59-1.41v-8.13s3.6,0,3.6,0v-3.37s-5.18-.01-5.18-.01c1.21-.45,1.77-1.6,1.53-2.78h-4.09s0,1.49,0,1.49c0,.74-.59,1.3-1.31,1.3h-1.31s0,3.38,0,3.38l2.54.02.02,8.41c0,1.23.45,2.43,1.26,3.31,1.67,1.81,5.27,1.91,7.12.17l-1.47-2.81ZM186.75,70.67c.04-2.51,1.47-4.42,4.05-4.42l2.95-4.13-3.52-.02c-.58.07-1.09.28-1.51.68-.99.76-1.47,1.83-1.96,2.98l-.03-3.54h-4.14s0,16.3,0,16.3h4.15s0-7.85,0-7.85ZM97.49,70.67c.04-2.54,1.48-4.41,4.06-4.44l2.96-4.12-3.27-.03-1.17.23c-1.29.81-1.95,1.96-2.55,3.43l-.02-3.54h-4.15s0,16.31,0,16.31l4.16-.02v-7.83Z"/>
      <path class="cls-1" d="M604.79,62.3v12.47s-12.46,0-12.46,0v-37.47s12.43-12.41,12.43-12.41h25s0,24.96,0,24.96l-12.44,12.44h-12.53ZM617.23,37.4h-12.44v12.42h12.44v-12.42ZM843.15,62.31l-12.48-12.44v-12.52s12.5-12.47,12.5-12.47h25.01s0,37.41,0,37.41l-25.03.02ZM855.65,37.4h-12.45v12.42h12.45v-12.42ZM675.15,62.31l-12.49-12.43v-12.55s12.48-12.45,12.48-12.45h24.98s0,37.41,0,37.41l-24.97.02ZM687.59,37.4h-12.4v12.43h12.4v-12.43ZM756.96,37.4h12.49s0-12.52,0-12.52h-12.49s-.02-24.88-.02-24.88l-12.48,12.43v49.86s24.98,0,24.98,0v-12.47s-12.49-.01-12.49-.01v-12.41ZM803.66,49.83l-12.38.03,12.46,12.43h24.98s-.01-12.48-.01-12.48l-25.04.02ZM740.76,24.88h-24.95s-12.46,12.46-12.46,12.46l12.24.03,25.19.02v-12.52ZM828.71,24.88h-25s-12.46,12.46-12.46,12.46l12.59.03,24.88.02v-12.52ZM715.76,49.83l-12.42.04,12.43,12.42h25s0-12.48,0-12.48l-25,.02ZM671.11,24.89h-25.03s-12.5,12.46-12.5,12.46l25.05.04,12.48-12.5ZM774.75,37.35v24.95h12.49v-24.95h-12.49ZM633.59,49.78v12.51h12.53v-12.51h-12.53ZM787.23,12.39l-12.55,12.53h12.57s-.02-12.53-.02-12.53ZM689.85,15.53l-.03-6.33-12.5,12.48h6.4s6.13-6.15,6.13-6.15ZM783.97,73.85c1.09,1.33,1.12,3.15.36,4.64-.63,1.23-2.11,2.31-3.75,2.33l-5.79.08v-8.7s5.69.05,5.69.05c1.28.01,2.65.57,3.5,1.6ZM783.81,76.73c.14-1.89-1.1-3.53-3.08-3.57l-4.94-.09v6.96s4.8-.07,4.8-.07c1.86-.03,3.09-1.48,3.22-3.23ZM803.56,77.45c.02-1.37,1.45-2.04,2.66-2.05s2.25.73,2.27,2.04l.04,3.44h.92s-.06-3.62-.06-3.62c-.03-1.6-1.29-2.58-2.78-2.62-1.41-.04-2.67.45-3.26,1.78-.47-1.23-1.47-1.71-2.67-1.77-1.32-.06-2.52.38-3.08,1.59l-.07-1.43-.89.02v6.05s.9,0,.9,0l.06-3.28c.03-1.47,1.51-2.24,2.84-2.19,1.16.04,2.12.79,2.13,2.03l.04,3.45.89-.03.05-3.41ZM643.22,80.53c-1.96.95-4.55.77-5.93-.86l-.11,1.21h-.8s0-8.84,0-8.84h.91s.01,4.09.01,4.09c1.41-1.56,3.6-1.81,5.54-1.19,1.22.39,2.03,1.43,2.13,2.57.11,1.25-.51,2.41-1.75,3.02ZM642.75,79.89c.94-.45,1.34-1.32,1.29-2.2-.05-.76-.53-1.54-1.34-1.89-1.34-.58-2.85-.5-4.16.11-.86.41-1.33,1.21-1.28,2.11.11,2.13,3.3,2.92,5.5,1.87ZM714.69,83.3h-.9s0-8.47,0-8.47l.91-.02.03,1.38c1.2-1.6,3.75-1.92,5.67-1.17,1.13.45,1.85,1.43,1.95,2.52.1,1.15-.42,2.3-1.5,2.88-1.95,1.04-4.4.87-6.11-.71l-.04,3.6ZM720.38,79.71c.88-.49,1.12-1.44.99-2.26-.32-2.04-3.39-2.59-5.52-1.5-.78.4-1.19,1.11-1.19,1.9,0,.76.38,1.52,1.16,1.92,1.38.71,3.12.72,4.55-.07ZM788.86,80.11c1.44.32,3.07.34,4.15-.62l.52-.47c.14-.13.6.16.74.31-1.28,2.03-4.85,2.19-6.81,1.05-1.04-.61-1.5-1.68-1.37-2.83.31-2.76,3.76-3.48,6.36-2.52,1.32.49,2.12,1.68,1.95,3.09h-7.4c.08.96.75,1.75,1.86,2ZM793.5,77.41c-.13-.88-.61-1.45-1.35-1.73-2.06-.8-4.86-.32-5.16,1.74h6.5ZM725,80.82c-.85-.33-1.23-1-1.14-1.75.07-.62.68-1.4,1.51-1.47l5.5-.43c.23-2.06-3.9-2.33-5.34-1.09-.39.34-.7,1.15-1.44.57.7-2.06,3.94-2.39,6.1-1.69.99.32,1.53,1.09,1.55,2.11l.08,3.79h-.85s-.15-1.25-.15-1.25c-1.07,1.45-4.19,1.84-5.83,1.21ZM730.89,77.82l-5.11.38c-.42.03-.93.55-.99.88-.07.42.25.97.72,1.1,2.29.64,5.62,0,5.39-2.37ZM740.66,80.82c-.85-.33-1.23-1-1.14-1.75.07-.62.68-1.4,1.51-1.47l5.5-.43c.23-2.06-3.9-2.33-5.34-1.09-.4.34-.69,1.16-1.44.57.71-2.06,3.95-2.39,6.11-1.69.99.32,1.53,1.09,1.55,2.11l.08,3.79h-.85s-.15-1.25-.15-1.25c-1.07,1.45-4.19,1.84-5.83,1.21ZM746.56,77.82l-5.11.38c-.42.03-.93.55-.99.88-.07.42.25.97.72,1.1,2.29.64,5.62,0,5.39-2.37ZM759.81,80.82c-.85-.33-1.23-1-1.14-1.75.07-.62.68-1.4,1.51-1.47l5.5-.43c.23-2.06-3.89-2.33-5.34-1.09-.39.34-.7,1.17-1.44.57.71-2.05,3.94-2.38,6.1-1.68.99.32,1.53,1.09,1.55,2.11l.09,3.79h-.85s-.15-1.25-.15-1.25c-1.07,1.45-4.19,1.84-5.83,1.21ZM765.7,77.82l-5.11.38c-.42.03-.93.56-.99.88-.07.41.26.97.72,1.1,2.3.64,5.62,0,5.39-2.37ZM663.38,80.82c-.85-.33-1.23-1-1.14-1.75.07-.62.68-1.4,1.51-1.47l5.5-.43c.23-2.06-3.9-2.33-5.34-1.09-.39.34-.7,1.16-1.44.57.71-2.06,3.94-2.38,6.1-1.69.99.32,1.53,1.09,1.55,2.11l.08,3.79h-.84s-.15-1.25-.15-1.25c-1.07,1.45-4.19,1.84-5.83,1.21ZM669.27,77.82l-5.11.38c-.42.03-.93.56-.99.88-.07.41.26.97.72,1.1,2.3.64,5.62,0,5.39-2.37ZM837.96,80.82c-.85-.33-1.23-1-1.14-1.75.07-.62.68-1.4,1.51-1.47l5.5-.43c.23-2.06-3.89-2.33-5.34-1.09-.4.34-.69,1.17-1.44.57.72-2.06,3.94-2.38,6.11-1.68.99.32,1.53,1.09,1.55,2.11l.08,3.79h-.84s-.15-1.25-.15-1.25c-1.06,1.45-4.19,1.84-5.83,1.21ZM843.86,77.82l-5.11.38c-.42.03-.93.55-.99.89-.07.39.26.97.72,1.09,2.3.64,5.62,0,5.39-2.37ZM861.11,80.82c-.85-.33-1.23-1-1.14-1.75.07-.62.68-1.4,1.51-1.47l5.5-.43c.23-2.06-3.9-2.33-5.34-1.09-.4.34-.68,1.16-1.44.57.72-2.06,3.95-2.38,6.11-1.69.99.32,1.53,1.09,1.55,2.11l.08,3.79h-.85s-.15-1.25-.15-1.25c-1.07,1.45-4.19,1.84-5.83,1.21ZM867.01,77.82l-5.11.38c-.42.03-.93.55-.99.88-.07.42.25.97.72,1.1,2.29.65,5.62,0,5.39-2.37ZM627,80.82c-.85-.33-1.23-1-1.14-1.75.07-.62.68-1.4,1.51-1.47l5.5-.43c.23-2.06-3.89-2.33-5.34-1.09-.4.34-.69,1.17-1.44.56.72-2.05,3.94-2.38,6.11-1.68.99.32,1.53,1.09,1.55,2.11l.09,3.79h-.85s-.15-1.25-.15-1.25c-1.07,1.45-4.19,1.84-5.83,1.21ZM632.9,77.82l-5.11.38c-.42.03-.93.56-.99.88-.07.41.26.97.72,1.1,2.3.64,5.62,0,5.39-2.37ZM653.39,80.44c-1.69.86-3.65.84-5.27.04-1.05-.52-1.64-1.55-1.64-2.62s.59-2.1,1.64-2.62c1.63-.81,3.58-.8,5.22,0,1.01.49,1.59,1.46,1.64,2.46.05,1.09-.48,2.18-1.59,2.74ZM652.68,79.9c.98-.42,1.41-1.28,1.37-2.18-.11-2.09-2.93-2.8-5.08-2-.98.37-1.55,1.17-1.55,2.13s.57,1.75,1.55,2.13c1.17.43,2.49.44,3.72-.09ZM704.74,80.44c-1.69.86-3.65.84-5.27.04-1.05-.52-1.64-1.55-1.64-2.62s.59-2.1,1.64-2.62c1.63-.81,3.58-.8,5.22,0,1.01.49,1.59,1.46,1.64,2.46.05,1.09-.48,2.18-1.59,2.74ZM704.03,79.9c.98-.42,1.41-1.28,1.37-2.18-.11-2.09-2.93-2.8-5.08-2-.98.37-1.55,1.17-1.55,2.13,0,.96.57,1.75,1.55,2.13,1.17.43,2.49.44,3.72-.09ZM685.07,80.44c-1.69.86-3.65.84-5.27.04-1.05-.52-1.64-1.55-1.64-2.62,0-1.08.59-2.1,1.64-2.62,1.63-.81,3.58-.8,5.22,0,1.01.49,1.59,1.46,1.64,2.46.05,1.09-.48,2.18-1.59,2.74ZM684.36,79.9c.98-.42,1.41-1.28,1.37-2.18-.11-2.09-2.93-2.8-5.08-2-.98.37-1.55,1.17-1.55,2.13s.57,1.75,1.55,2.13c1.17.43,2.49.44,3.72-.09ZM818.23,80.44c-1.69.86-3.65.84-5.27.04-1.05-.52-1.64-1.55-1.64-2.62s.59-2.1,1.64-2.62c1.63-.81,3.58-.8,5.22,0,1.01.49,1.59,1.46,1.64,2.46.05,1.09-.48,2.18-1.59,2.74ZM817.52,79.9c.98-.42,1.41-1.28,1.37-2.18-.11-2.09-2.93-2.8-5.08-2-.98.37-1.55,1.17-1.55,2.13s.57,1.75,1.55,2.13c1.17.43,2.49.44,3.72-.09ZM847.43,78.11c-.11-.97.36-1.97,1.38-2.36,1.68-.65,4.12-.5,4.89,1.12.19.04.64.03,1.01,0-.65-2.34-3.96-2.67-6.25-1.82-1.23.46-1.98,1.58-1.98,2.8s.75,2.35,1.98,2.81c2.28.85,5.47.43,6.22-1.72-.77-.39-.97.04-1.36.46-.95,1.01-2.53,1.02-3.91.74-1.17-.24-1.87-1.03-1.98-2.03ZM822.19,78.11c-.11-.97.36-1.97,1.38-2.36,1.68-.65,4.12-.5,4.89,1.12.19.04.64.03,1.01,0-.65-2.34-3.96-2.67-6.25-1.82-1.23.46-1.98,1.58-1.98,2.8,0,1.22.75,2.35,1.98,2.81,2.28.85,5.47.43,6.22-1.72-.77-.39-.97.04-1.36.46-.95,1.01-2.53,1.02-3.91.74-1.17-.24-1.87-1.03-1.98-2.03ZM617.75,80.02v-7.81s-1,0-1,0v8.67s7.74,0,7.74,0l-.03-.87h-6.71ZM675.54,80.18c-.74.02-1.23-.7-1.23-1.35v-3.28s3.01,0,3.01,0v-.74s-3.01,0-3.01,0v-2s-.9.44-.9.44l-.02,1.56h-1.9s0,.74,0,.74h1.89s.04,3.61.04,3.61c0,.88.66,1.66,1.51,1.81.83.14,1.64.08,2.45-.06l.03-.78-1.87.06ZM658.02,77.81c.04-1.69,1.6-2.63,3.33-2.22l.03-.93c-1.69-.2-2.87.43-3.51,1.94l-.03-1.79-.81.02v6.05s.9,0,.9,0l.08-3.06ZM832.6,77.81c.04-1.69,1.6-2.63,3.33-2.22l.03-.93c-1.69-.2-2.87.43-3.51,1.94l-.03-1.79-.81.02v6.05s.9,0,.9,0l.08-3.06ZM735.3,77.81c.04-1.69,1.6-2.63,3.33-2.22l.03-.93c-1.69-.2-2.87.43-3.51,1.94l-.03-1.79-.81.02v6.05s.9,0,.9,0l.08-3.06ZM689.7,77.81c.04-1.69,1.6-2.63,3.33-2.22l.03-.93c-1.69-.2-2.87.43-3.51,1.94l-.03-1.79-.81.02v6.05s.9,0,.9,0l.08-3.06ZM755.43,72.03v8.86h.92v-8.86h-.92ZM856.69,74.81v6.08h.92v-6.08h-.92ZM694.81,74.81v6.08h.92v-6.08h-.92ZM856.56,72.38v1.39h1.09v-1.39h-1.09ZM694.68,72.38v1.39h1.09v-1.39h-1.09Z"/>
    </g>
  </g>
</svg>